<svg width="282" height="152" viewBox="0 0 282 152" fill="none" xmlns="http://www.w3.org/2000/svg">
<path d="M13.3525 148H11.7393V141.567C11.7393 141.353 11.7415 141.139 11.7461 140.925C11.7507 140.711 11.7552 140.501 11.7598 140.296C11.7689 140.091 11.7803 139.895 11.7939 139.708C11.6982 139.813 11.5798 139.927 11.4385 140.05C11.3018 140.173 11.1559 140.3 11.001 140.433L9.85254 141.349L9.0459 140.33L12.0127 138.006H13.3525V148Z" fill="white"/>
<path d="M49.8906 148H43.123V146.79L45.7139 144.165C46.2152 143.655 46.6276 143.215 46.9512 142.846C47.2747 142.472 47.514 142.119 47.6689 141.786C47.8285 141.453 47.9082 141.091 47.9082 140.699C47.9082 140.216 47.7692 139.852 47.4912 139.605C47.2132 139.355 46.8464 139.229 46.3906 139.229C45.9577 139.229 45.5566 139.316 45.1875 139.489C44.8229 139.658 44.4447 139.899 44.0527 140.214L43.1709 139.154C43.4489 138.917 43.7451 138.701 44.0596 138.505C44.3786 138.309 44.734 138.154 45.126 138.04C45.5179 137.922 45.9645 137.862 46.4658 137.862C47.0993 137.862 47.6462 137.976 48.1064 138.204C48.5667 138.427 48.9199 138.74 49.166 139.141C49.4167 139.542 49.542 140.009 49.542 140.542C49.542 141.08 49.4349 141.576 49.2207 142.032C49.0065 142.488 48.7012 142.939 48.3047 143.386C47.9082 143.828 47.4365 144.309 46.8896 144.828L45.1602 146.517V146.592H49.8906V148Z" fill="white"/>
<path d="M80.5078 140.289C80.5078 140.74 80.4167 141.132 80.2344 141.465C80.0521 141.798 79.8014 142.071 79.4824 142.285C79.168 142.495 78.8034 142.645 78.3887 142.736V142.784C79.1862 142.884 79.7878 143.135 80.1934 143.536C80.6035 143.937 80.8086 144.468 80.8086 145.129C80.8086 145.708 80.6696 146.225 80.3916 146.681C80.1136 147.132 79.6875 147.487 79.1133 147.747C78.5391 148.007 77.8008 148.137 76.8984 148.137C76.3561 148.137 75.8525 148.093 75.3877 148.007C74.9274 147.92 74.4899 147.781 74.0752 147.59V146.161C74.499 146.371 74.9502 146.533 75.4287 146.646C75.9072 146.76 76.3607 146.817 76.7891 146.817C77.623 146.817 78.2178 146.662 78.5732 146.353C78.9287 146.038 79.1064 145.605 79.1064 145.054C79.1064 144.698 79.013 144.407 78.8262 144.179C78.6439 143.951 78.359 143.78 77.9717 143.666C77.5889 143.552 77.0944 143.495 76.4883 143.495H75.6064V142.203H76.4951C77.0739 142.203 77.5387 142.135 77.8896 141.998C78.2406 141.857 78.4935 141.663 78.6484 141.417C78.8079 141.171 78.8877 140.884 78.8877 140.556C78.8877 140.127 78.7487 139.795 78.4707 139.558C78.1927 139.316 77.7803 139.195 77.2334 139.195C76.8962 139.195 76.5885 139.234 76.3105 139.312C76.0371 139.389 75.7842 139.487 75.5518 139.605C75.3193 139.724 75.0983 139.852 74.8887 139.988L74.1162 138.874C74.4945 138.591 74.9456 138.352 75.4697 138.156C75.9938 137.96 76.6045 137.862 77.3018 137.862C78.3271 137.862 79.1178 138.083 79.6738 138.525C80.2298 138.963 80.5078 139.551 80.5078 140.289Z" fill="white"/>
<path d="M112.253 145.806H110.899V148H109.313V145.806H104.768V144.589L109.334 137.979H110.899V144.473H112.253V145.806ZM109.313 144.473V141.991C109.313 141.786 109.316 141.579 109.32 141.369C109.329 141.155 109.339 140.95 109.348 140.754C109.357 140.558 109.366 140.378 109.375 140.214C109.384 140.045 109.391 139.906 109.396 139.797H109.341C109.254 139.979 109.159 140.166 109.054 140.357C108.949 140.544 108.837 140.727 108.719 140.904L106.258 144.473H109.313Z" fill="white"/>
<path d="M140.521 141.752C141.163 141.752 141.728 141.868 142.216 142.101C142.708 142.328 143.091 142.666 143.364 143.112C143.638 143.554 143.774 144.097 143.774 144.739C143.774 145.441 143.626 146.047 143.33 146.558C143.034 147.063 142.599 147.453 142.024 147.727C141.45 148 140.751 148.137 139.926 148.137C139.402 148.137 138.912 148.091 138.456 148C138.005 147.909 137.615 147.772 137.287 147.59V146.141C137.629 146.332 138.039 146.489 138.518 146.612C138.996 146.731 139.454 146.79 139.892 146.79C140.356 146.79 140.755 146.722 141.088 146.585C141.421 146.448 141.676 146.239 141.854 145.956C142.036 145.674 142.127 145.316 142.127 144.883C142.127 144.309 141.942 143.867 141.573 143.557C141.209 143.242 140.637 143.085 139.857 143.085C139.584 143.085 139.292 143.11 138.982 143.16C138.677 143.206 138.422 143.256 138.217 143.311L137.513 142.894L137.889 138.006H143.084V139.421H139.304L139.085 141.909C139.249 141.873 139.445 141.839 139.673 141.807C139.901 141.77 140.183 141.752 140.521 141.752Z" fill="white"/>
<path d="M169.137 143.741C169.137 143.153 169.178 142.575 169.26 142.005C169.346 141.435 169.492 140.902 169.697 140.405C169.902 139.909 170.185 139.471 170.545 139.093C170.91 138.715 171.368 138.418 171.919 138.204C172.47 137.985 173.133 137.876 173.908 137.876C174.109 137.876 174.334 137.885 174.585 137.903C174.836 137.922 175.043 137.951 175.207 137.992V139.325C175.029 139.275 174.833 139.236 174.619 139.209C174.41 139.182 174.2 139.168 173.99 139.168C173.152 139.168 172.498 139.327 172.028 139.646C171.559 139.961 171.224 140.394 171.023 140.945C170.823 141.492 170.707 142.119 170.675 142.825H170.757C170.894 142.597 171.064 142.395 171.27 142.217C171.475 142.039 171.725 141.898 172.021 141.793C172.318 141.684 172.662 141.629 173.054 141.629C173.637 141.629 174.145 141.752 174.578 141.998C175.011 142.24 175.344 142.59 175.576 143.051C175.813 143.511 175.932 144.069 175.932 144.726C175.932 145.432 175.797 146.04 175.528 146.551C175.264 147.061 174.886 147.453 174.394 147.727C173.906 148 173.325 148.137 172.65 148.137C172.154 148.137 171.691 148.046 171.263 147.863C170.839 147.681 170.467 147.408 170.148 147.043C169.829 146.678 169.581 146.223 169.403 145.676C169.226 145.124 169.137 144.479 169.137 143.741ZM172.623 146.811C173.143 146.811 173.56 146.642 173.874 146.305C174.193 145.963 174.353 145.441 174.353 144.739C174.353 144.17 174.211 143.718 173.929 143.386C173.651 143.053 173.231 142.887 172.671 142.887C172.288 142.887 171.953 142.969 171.666 143.133C171.379 143.297 171.156 143.504 170.996 143.755C170.841 144.006 170.764 144.261 170.764 144.521C170.764 144.785 170.802 145.051 170.88 145.32C170.957 145.589 171.074 145.838 171.229 146.065C171.383 146.289 171.577 146.469 171.81 146.605C172.042 146.742 172.313 146.811 172.623 146.811Z" fill="white"/>
<path d="M202.265 148L206.188 139.414H201V138.006H207.918V139.106L203.994 148H202.265Z" fill="white"/>
<path d="M236.493 137.869C237.072 137.869 237.594 137.96 238.059 138.143C238.523 138.32 238.893 138.587 239.166 138.942C239.439 139.298 239.576 139.738 239.576 140.262C239.576 140.667 239.492 141.021 239.323 141.321C239.159 141.622 238.936 141.886 238.653 142.114C238.371 142.338 238.054 142.536 237.703 142.709C238.095 142.9 238.455 143.121 238.783 143.372C239.116 143.618 239.382 143.908 239.583 144.24C239.788 144.573 239.891 144.963 239.891 145.409C239.891 145.97 239.747 146.455 239.46 146.865C239.177 147.271 238.783 147.585 238.277 147.809C237.771 148.027 237.181 148.137 236.507 148.137C235.782 148.137 235.165 148.03 234.654 147.815C234.144 147.601 233.757 147.296 233.492 146.899C233.228 146.498 233.096 146.02 233.096 145.464C233.096 145.004 233.187 144.605 233.369 144.268C233.551 143.93 233.795 143.639 234.101 143.393C234.41 143.146 234.75 142.939 235.119 142.771C234.805 142.584 234.518 142.374 234.258 142.142C233.998 141.905 233.791 141.633 233.636 141.328C233.485 141.018 233.41 140.66 233.41 140.255C233.41 139.735 233.549 139.3 233.827 138.949C234.105 138.594 234.477 138.325 234.941 138.143C235.411 137.96 235.928 137.869 236.493 137.869ZM234.627 145.402C234.627 145.84 234.782 146.2 235.092 146.482C235.402 146.765 235.864 146.906 236.479 146.906C237.09 146.906 237.555 146.767 237.874 146.489C238.193 146.211 238.353 145.844 238.353 145.389C238.353 145.097 238.271 144.84 238.106 144.616C237.947 144.393 237.73 144.195 237.457 144.021C237.188 143.844 236.89 143.68 236.562 143.529L236.343 143.44C235.987 143.591 235.682 143.762 235.427 143.953C235.172 144.14 234.973 144.352 234.832 144.589C234.695 144.826 234.627 145.097 234.627 145.402ZM236.479 139.106C236.037 139.106 235.673 139.216 235.386 139.435C235.103 139.649 234.962 139.959 234.962 140.364C234.962 140.651 235.03 140.897 235.167 141.103C235.308 141.308 235.497 141.485 235.734 141.636C235.971 141.782 236.233 141.918 236.521 142.046C236.799 141.923 237.049 141.788 237.272 141.643C237.5 141.492 237.68 141.314 237.812 141.109C237.949 140.9 238.018 140.649 238.018 140.357C238.018 139.956 237.874 139.649 237.587 139.435C237.304 139.216 236.935 139.106 236.479 139.106Z" fill="white"/>
<path d="M271.877 142.265C271.877 142.857 271.834 143.438 271.747 144.008C271.665 144.577 271.519 145.111 271.31 145.607C271.104 146.104 270.82 146.544 270.455 146.927C270.095 147.305 269.639 147.601 269.088 147.815C268.536 148.03 267.871 148.137 267.092 148.137C266.896 148.137 266.668 148.125 266.408 148.103C266.153 148.084 265.943 148.057 265.779 148.021V146.681C265.952 146.731 266.146 146.772 266.36 146.804C266.579 146.831 266.796 146.845 267.01 146.845C267.853 146.845 268.509 146.688 268.979 146.373C269.452 146.059 269.787 145.626 269.983 145.074C270.184 144.523 270.298 143.896 270.325 143.194H270.243C270.111 143.413 269.945 143.614 269.744 143.796C269.544 143.974 269.295 144.117 268.999 144.227C268.703 144.331 268.343 144.384 267.919 144.384C267.345 144.384 266.843 144.263 266.415 144.021C265.991 143.78 265.661 143.429 265.424 142.969C265.191 142.504 265.075 141.946 265.075 141.294C265.075 140.588 265.21 139.979 265.479 139.469C265.747 138.958 266.128 138.566 266.62 138.293C267.112 138.015 267.691 137.876 268.356 137.876C268.858 137.876 269.32 137.967 269.744 138.149C270.173 138.327 270.546 138.601 270.865 138.97C271.184 139.334 271.433 139.792 271.61 140.344C271.788 140.891 271.877 141.531 271.877 142.265ZM268.377 139.202C267.871 139.202 267.459 139.373 267.14 139.715C266.821 140.052 266.661 140.572 266.661 141.273C266.661 141.843 266.798 142.294 267.071 142.627C267.345 142.96 267.764 143.126 268.329 143.126C268.721 143.126 269.058 143.046 269.341 142.887C269.628 142.723 269.849 142.515 270.004 142.265C270.163 142.014 270.243 141.759 270.243 141.499C270.243 141.23 270.204 140.961 270.127 140.692C270.054 140.424 269.94 140.177 269.785 139.954C269.63 139.731 269.434 139.551 269.197 139.414C268.965 139.273 268.691 139.202 268.377 139.202Z" fill="white"/>
<line x1="12.5" y1="129" x2="12.5" y2="7.689e-06" stroke="white" stroke-dasharray="2 2"/>
<line x1="44.5" y1="129" x2="44.5" y2="7.689e-06" stroke="white" stroke-dasharray="2 2"/>
<line x1="76.5" y1="129" x2="76.5" y2="7.689e-06" stroke="white" stroke-dasharray="2 2"/>
<line x1="108.5" y1="129" x2="108.5" y2="7.689e-06" stroke="white" stroke-dasharray="2 2"/>
<line x1="140.5" y1="129" x2="140.5" y2="7.689e-06" stroke="white" stroke-dasharray="2 2"/>
<line x1="172.5" y1="129" x2="172.5" y2="7.689e-06" stroke="white" stroke-dasharray="2 2"/>
<line x1="204.5" y1="129" x2="204.5" y2="7.689e-06" stroke="white" stroke-dasharray="2 2"/>
<line x1="236.5" y1="129" x2="236.5" y2="7.689e-06" stroke="white" stroke-dasharray="2 2"/>
<line x1="268.5" y1="129" x2="268.5" y2="7.689e-06" stroke="white" stroke-dasharray="2 2"/>
<rect y="88" width="26" height="41" fill="#065386"/>
<rect x="64" y="109" width="26" height="20" fill="#065386"/>
<rect x="128" y="109" width="26" height="20" fill="#065386"/>
<rect x="160" y="90" width="26" height="39" fill="#065386"/>
<rect x="224" y="90" width="26" height="39" fill="#065386"/>
<rect x="32" y="70" width="26" height="59" fill="#065386"/>
<rect x="96" y="48" width="26" height="81" fill="#065386"/>
<rect x="192" y="26" width="26" height="103" fill="#065386"/>
<rect x="256" y="6" width="26" height="123" fill="#065386"/>
</svg>
